<mxfile host="app.diagrams.net" agent="Mozilla/5.0 (Windows NT 10.0; Win64; x64) AppleWebKit/537.36 (KHTML, like Gecko) Chrome/127.0.0.0 Safari/537.36" version="24.7.6">
  <diagram name="Page-1" id="c7558073-3199-34d8-9f00-42111426c3f3">
    <mxGraphModel dx="2409" dy="1926" grid="1" gridSize="10" guides="1" tooltips="1" connect="1" arrows="1" fold="1" page="1" pageScale="1" pageWidth="826" pageHeight="1169" background="none" math="0" shadow="0">
      <root>
        <mxCell id="0" />
        <mxCell id="1" parent="0" />
        <mxCell id="sLRV9vYnDIUPVNr7N1KM-106" style="edgeStyle=orthogonalEdgeStyle;rounded=0;orthogonalLoop=1;jettySize=auto;html=1;verticalAlign=top;strokeWidth=2;strokeColor=#000000;" edge="1" parent="1" source="sLRV9vYnDIUPVNr7N1KM-96" target="sLRV9vYnDIUPVNr7N1KM-97">
          <mxGeometry relative="1" as="geometry" />
        </mxCell>
        <mxCell id="sLRV9vYnDIUPVNr7N1KM-96" value="Social Media Mental Health Dataset" style="whiteSpace=wrap;align=center;verticalAlign=middle;fontStyle=1;strokeWidth=3;fillColor=#FFFFCC" vertex="1" parent="1">
          <mxGeometry x="-42.00000000000003" y="-430.0000000000001" width="180" height="60" as="geometry" />
        </mxCell>
        <mxCell id="sLRV9vYnDIUPVNr7N1KM-108" style="edgeStyle=orthogonalEdgeStyle;rounded=0;orthogonalLoop=1;jettySize=auto;html=1;exitX=1;exitY=0.5;exitDx=0;exitDy=0;entryX=0;entryY=0.5;entryDx=0;entryDy=0;curved=1;strokeWidth=2;" edge="1" parent="1" source="sLRV9vYnDIUPVNr7N1KM-97" target="sLRV9vYnDIUPVNr7N1KM-98">
          <mxGeometry relative="1" as="geometry" />
        </mxCell>
        <mxCell id="sLRV9vYnDIUPVNr7N1KM-109" style="edgeStyle=orthogonalEdgeStyle;rounded=0;orthogonalLoop=1;jettySize=auto;html=1;entryX=0;entryY=0.5;entryDx=0;entryDy=0;curved=1;strokeWidth=2;" edge="1" parent="1" source="sLRV9vYnDIUPVNr7N1KM-97" target="sLRV9vYnDIUPVNr7N1KM-103">
          <mxGeometry relative="1" as="geometry" />
        </mxCell>
        <mxCell id="sLRV9vYnDIUPVNr7N1KM-97" value="&lt;p style=&quot;margin: 0px; margin-top: 4px; text-align: center; text-decoration: underline;&quot;&gt;&lt;strong&gt;Prerocessing&lt;br&gt;&lt;/strong&gt;&lt;/p&gt;&lt;hr&gt;&lt;h4 style=&quot;margin-top: 11pt; margin-bottom: 2pt;&quot;&gt;&lt;font style=&quot;font-size: 12px;&quot;&gt;&lt;span style=&quot;font-family: &amp;quot;Times New Roman&amp;quot;;&quot; dir=&quot;LTR&quot;&gt;Data Cleaning&lt;/span&gt;&lt;span style=&quot;font-family: &amp;quot;Times New Roman&amp;quot;;&quot;&gt;&lt;/span&gt;&lt;/font&gt;&lt;/h4&gt;&lt;div style=&quot;&quot;&gt;&lt;span style=&quot;font-family: &amp;quot;Times New Roman&amp;quot;;&quot; dir=&quot;LTR&quot;&gt;&lt;font style=&quot;font-size: 12px;&quot;&gt;Text Normalization&lt;/font&gt;&lt;/span&gt;&lt;/div&gt;&lt;div style=&quot;&quot;&gt;&lt;span style=&quot;font-family: &amp;quot;Times New Roman&amp;quot;; background-color: initial;&quot;&gt;&lt;font style=&quot;font-size: 12px;&quot;&gt;Data Augmentation&lt;/font&gt;&lt;/span&gt;&lt;/div&gt;&lt;div style=&quot;&quot;&gt;&lt;span style=&quot;font-family: &amp;quot;Times New Roman&amp;quot;; background-color: initial;&quot;&gt;&lt;font style=&quot;font-size: 12px;&quot;&gt;Anonymization&lt;/font&gt;&lt;/span&gt;&lt;/div&gt;&lt;div style=&quot;&quot;&gt;&lt;span style=&quot;font-family: &amp;quot;Times New Roman&amp;quot;; background-color: initial;&quot;&gt;&lt;font style=&quot;font-size: 12px;&quot;&gt;Data Splitting&lt;/font&gt;&lt;/span&gt;&lt;/div&gt;&lt;div style=&quot;&quot;&gt;&lt;span style=&quot;font-size: 10.5pt; font-family: &amp;quot;Times New Roman&amp;quot;; background-color: initial;&quot;&gt;&lt;br&gt;&lt;/span&gt;&lt;/div&gt;" style="verticalAlign=middle;align=center;overflow=fill;fontSize=12;fontFamily=Helvetica;html=1;rounded=1;fontStyle=1;strokeWidth=3;fillColor=#E6FFCC" vertex="1" parent="1">
          <mxGeometry x="-43" y="-231.25" width="180" height="140" as="geometry" />
        </mxCell>
        <mxCell id="sLRV9vYnDIUPVNr7N1KM-110" style="edgeStyle=orthogonalEdgeStyle;rounded=0;orthogonalLoop=1;jettySize=auto;html=1;exitX=1;exitY=0.5;exitDx=0;exitDy=0;entryX=0;entryY=0.5;entryDx=0;entryDy=0;curved=1;strokeWidth=2;" edge="1" parent="1" target="sLRV9vYnDIUPVNr7N1KM-100">
          <mxGeometry relative="1" as="geometry">
            <mxPoint x="465.5" y="-242.00000000000023" as="sourcePoint" />
          </mxGeometry>
        </mxCell>
        <mxCell id="sLRV9vYnDIUPVNr7N1KM-98" value="&lt;p style=&quot;margin: 0px; margin-top: 4px; text-align: center; text-decoration: underline;&quot;&gt;&lt;strong&gt;Features Extraction&lt;/strong&gt;&lt;/p&gt;&lt;hr&gt;&lt;p style=&quot;margin: 0px; margin-left: 8px;&quot;&gt;IF-IDF&lt;/p&gt;" style="verticalAlign=middle;align=center;overflow=fill;fontSize=12;fontFamily=Helvetica;html=1;rounded=1;fontStyle=1;strokeWidth=3;fillColor=#E6FFCC" vertex="1" parent="1">
          <mxGeometry x="285.5" y="-280" width="180" height="60" as="geometry" />
        </mxCell>
        <mxCell id="sLRV9vYnDIUPVNr7N1KM-116" style="edgeStyle=orthogonalEdgeStyle;rounded=0;orthogonalLoop=1;jettySize=auto;html=1;exitX=1;exitY=0.5;exitDx=0;exitDy=0;entryX=0.5;entryY=1;entryDx=0;entryDy=0;curved=1;strokeWidth=2;" edge="1" parent="1" source="sLRV9vYnDIUPVNr7N1KM-100" target="sLRV9vYnDIUPVNr7N1KM-104">
          <mxGeometry relative="1" as="geometry" />
        </mxCell>
        <mxCell id="sLRV9vYnDIUPVNr7N1KM-100" value="&lt;p style=&quot;margin: 4px 0px 0px; text-decoration: underline;&quot;&gt;Machine Learning&amp;nbsp;&lt;/p&gt;&lt;p style=&quot;margin: 4px 0px 0px; text-decoration: underline;&quot;&gt;Classifiers&lt;/p&gt;&lt;hr&gt;&lt;div style=&quot;&quot;&gt;&lt;font style=&quot;font-size: 12px;&quot; face=&quot;宋体&quot;&gt;Logistic Regression&lt;/font&gt;&lt;/div&gt;&lt;div style=&quot;&quot;&gt;&lt;font style=&quot;font-size: 12px;&quot; face=&quot;宋体&quot;&gt;SVM&lt;/font&gt;&lt;/div&gt;&lt;div style=&quot;&quot;&gt;&lt;font style=&quot;font-size: 12px;&quot; face=&quot;宋体&quot;&gt;Random Forest&lt;/font&gt;&lt;/div&gt;&lt;div style=&quot;&quot;&gt;&lt;font style=&quot;font-size: 12px;&quot; face=&quot;宋体&quot;&gt;Naive Bayes&lt;/font&gt;&lt;/div&gt;&lt;div style=&quot;&quot;&gt;&lt;font style=&quot;font-size: 12px;&quot; face=&quot;宋体&quot;&gt;AdaBoost&lt;/font&gt;&lt;/div&gt;&lt;div style=&quot;&quot;&gt;&lt;font style=&quot;font-size: 12px;&quot; face=&quot;宋体&quot;&gt;KNN&lt;/font&gt;&lt;/div&gt;&lt;div style=&quot;&quot;&gt;&lt;font style=&quot;font-size: 12px;&quot; face=&quot;宋体&quot;&gt;Decision Tree&lt;/font&gt;&lt;/div&gt;&lt;div style=&quot;&quot;&gt;&lt;font style=&quot;font-size: 12px;&quot; face=&quot;宋体&quot;&gt;XGBoost&lt;/font&gt;&lt;/div&gt;" style="verticalAlign=middle;align=center;overflow=fill;fontSize=12;fontFamily=Helvetica;html=1;rounded=1;fontStyle=1;strokeWidth=3;fillColor=#E6FFCC" vertex="1" parent="1">
          <mxGeometry x="591" y="-423" width="180" height="170" as="geometry" />
        </mxCell>
        <mxCell id="sLRV9vYnDIUPVNr7N1KM-115" style="edgeStyle=orthogonalEdgeStyle;rounded=0;orthogonalLoop=1;jettySize=auto;html=1;exitX=1;exitY=0.5;exitDx=0;exitDy=0;strokeWidth=2;curved=1;entryX=0.5;entryY=1;entryDx=0;entryDy=0;" edge="1" parent="1" source="sLRV9vYnDIUPVNr7N1KM-101" target="sLRV9vYnDIUPVNr7N1KM-104">
          <mxGeometry relative="1" as="geometry">
            <mxPoint x="860" y="-180" as="targetPoint" />
          </mxGeometry>
        </mxCell>
        <mxCell id="sLRV9vYnDIUPVNr7N1KM-101" value="&lt;p style=&quot;text-decoration-line: underline; margin: 4px 0px 0px;&quot;&gt;&lt;font style=&quot;font-size: 12px;&quot;&gt;Machine Learning&amp;nbsp;&lt;/font&gt;&lt;/p&gt;&lt;p style=&quot;text-decoration-line: underline; margin: 4px 0px 0px;&quot;&gt;&lt;font style=&quot;font-size: 12px;&quot;&gt;Classifiers&lt;/font&gt;&lt;/p&gt;&lt;hr&gt;&lt;p style=&quot;margin-top: 11pt; margin-bottom: 2pt;&quot;&gt;&lt;font style=&quot;font-size: 12px;&quot;&gt;&lt;font style=&quot;font-size: 12px;&quot; face=&quot;Times New Roman&quot;&gt;CNN&lt;br&gt;&lt;/font&gt;&lt;font style=&quot;font-size: 12px;&quot; face=&quot;Times New Roman&quot;&gt;LSTM&lt;br&gt;&lt;/font&gt;&lt;font style=&quot;font-size: 12px;&quot; face=&quot;Times New Roman&quot;&gt;GRU&lt;br&gt;&lt;/font&gt;&lt;font style=&quot;font-size: 12px;&quot; face=&quot;Times New Roman&quot;&gt;BiLSTM&lt;br&gt;&lt;/font&gt;&lt;font style=&quot;font-size: 12px;&quot; face=&quot;Times New Roman&quot;&gt;BERT&lt;br&gt;&lt;/font&gt;&lt;font style=&quot;font-size: 12px;&quot; face=&quot;Times New Roman&quot;&gt;ALBERT&lt;br&gt;&lt;/font&gt;&lt;font style=&quot;font-size: 12px;&quot; face=&quot;Times New Roman&quot;&gt;BioClinicalBERT&lt;br&gt;&lt;/font&gt;&lt;font style=&quot;font-size: 12px;&quot; face=&quot;Times New Roman&quot;&gt;DistilBERT&lt;br&gt;&lt;/font&gt;&lt;font style=&quot;font-size: 12px;&quot; face=&quot;Times New Roman&quot;&gt;GPT-2&lt;br&gt;&lt;/font&gt;&lt;font style=&quot;font-size: 12px;&quot; face=&quot;Times New Roman&quot;&gt;RoBERTa&lt;br&gt;&lt;/font&gt;&lt;font style=&quot;font-size: 12px;&quot; face=&quot;Times New Roman&quot;&gt;CNN-LSTM&lt;br&gt;&lt;/font&gt;&lt;font style=&quot;font-size: 12px;&quot; face=&quot;Times New Roman&quot;&gt;CNN-BiLSTM&lt;br&gt;&lt;/font&gt;&lt;font style=&quot;font-size: 12px;&quot; face=&quot;Times New Roman&quot;&gt;RoBERTa-LSTM&lt;br&gt;&lt;/font&gt;&lt;font style=&quot;font-size: 12px;&quot; face=&quot;Times New Roman&quot;&gt;RoBERTa-BiLSTM&lt;/font&gt;&lt;/font&gt;&lt;/p&gt;" style="verticalAlign=middle;align=center;overflow=fill;fontSize=12;fontFamily=Helvetica;html=1;rounded=1;fontStyle=1;strokeWidth=3;fillColor=#E6FFCC" vertex="1" parent="1">
          <mxGeometry x="591.5" y="-223.25" width="180" height="270" as="geometry" />
        </mxCell>
        <mxCell id="sLRV9vYnDIUPVNr7N1KM-103" value="Word Embedding" style="whiteSpace=wrap;align=center;verticalAlign=middle;fontStyle=1;strokeWidth=3;fillColor=#FFFFCC" vertex="1" parent="1">
          <mxGeometry x="288" y="-102" width="180" height="60" as="geometry" />
        </mxCell>
        <mxCell id="sLRV9vYnDIUPVNr7N1KM-104" value="classification" style="whiteSpace=wrap;align=center;verticalAlign=middle;fontStyle=1;strokeWidth=3;fillColor=#FFFFCC;flipV=0;direction=south;textShadow=1;textDirection=vertical-lr;fontFamily=Helvetica;fontSize=12;" vertex="1" parent="1">
          <mxGeometry x="920" y="-443" width="60" height="493" as="geometry" />
        </mxCell>
        <mxCell id="sLRV9vYnDIUPVNr7N1KM-111" style="edgeStyle=orthogonalEdgeStyle;rounded=0;orthogonalLoop=1;jettySize=auto;html=1;exitX=1;exitY=0.5;exitDx=0;exitDy=0;entryX=0.027;entryY=0.559;entryDx=0;entryDy=0;entryPerimeter=0;curved=1;strokeWidth=2;" edge="1" parent="1" source="sLRV9vYnDIUPVNr7N1KM-103" target="sLRV9vYnDIUPVNr7N1KM-101">
          <mxGeometry relative="1" as="geometry">
            <mxPoint x="468" y="-72.00000000000023" as="sourcePoint" />
          </mxGeometry>
        </mxCell>
        <mxCell id="sLRV9vYnDIUPVNr7N1KM-120" value="Baseline Experiments" style="rounded=0;whiteSpace=wrap;html=1;opacity=50;fillColor=#dae8fc;strokeColor=#6c8ebf;labelPosition=center;verticalLabelPosition=top;align=center;verticalAlign=bottom;" vertex="1" parent="1">
          <mxGeometry x="560" y="-442" width="240" height="465" as="geometry" />
        </mxCell>
      </root>
    </mxGraphModel>
  </diagram>
</mxfile>
